<?xml version="1.0" encoding="UTF-8" standalone="no"?>
<!-- Created with Inkscape (http://www.inkscape.org/) -->
<svg
   xmlns:svg="http://www.w3.org/2000/svg"
   xmlns="http://www.w3.org/2000/svg"
   version="1.0"
   width="885.82672"
   height="885.82672"
   id="svg2">
  <defs
     id="defs4" />
  <g
     transform="translate(-290.45074,211.95366)"
     id="layer1">
    <g
       transform="matrix(1.6341567,0,0,1.6341567,-184.1913,-427.34118)"
       id="g2745">
      <path
         d="M 290.45075,673.87312 L 832.5204,673.87312 L 832.5204,131.80347 L 290.45075,131.80347 L 290.45075,673.87312 z"
         id="path2496"
         style="fill:#125a9e;fill-opacity:1;fill-rule:nonzero;stroke:none" />
      <path
         d="M 453.9916,602.48746 C 450.06455,593.32206 429.11117,544.34661 429.11117,544.34661 L 410.76672,544.34661 L 450.97972,638.34314 L 457.3313,638.34314 L 496.94329,544.34661 L 478.66031,544.34661 C 478.66031,544.34661 457.89133,593.3084 453.9916,602.48746 M 533.78245,621.68562 L 533.78245,544.34661 L 515.94339,544.34661 L 515.94339,638.34314 L 583.27695,638.34314 L 583.27695,621.68562 L 533.78245,621.68562 z"
         id="path2508"
         style="fill:#ffffff;fill-opacity:1;fill-rule:nonzero;stroke:none" />
      <path
         d="M 378.38118,544.34661 L 366.03317,544.34661 L 325.9909,638.34314 L 344.58805,638.34314 C 344.58805,638.34314 352.6607,619.20645 353.80125,616.50874 L 391.94487,616.50874 C 393.11957,619.12449 401.76592,638.34314 401.76592,638.34314 L 420.33575,638.34314 L 378.38118,544.34661 z M 384.56885,600.11074 L 360.71969,600.11074 C 362.75493,595.26851 369.33872,579.68324 372.26181,572.73065 C 375.35564,579.62177 382.36287,595.20704 384.56885,600.11074"
         id="path2512"
         style="fill:#ffffff;fill-opacity:1;fill-rule:nonzero;stroke:none" />
      <path
         d="M 542.26419,411.41627 L 542.26419,411.41627 L 542.25053,411.41627 L 542.25053,411.40261 L 542.25053,411.41627 C 525.4086,399.91513 513.79819,397.48378 505.49333,405.30373 C 497.68021,412.63878 502.22193,426.33223 508.73742,435.76399 C 515.70367,444.88158 527.31408,453.42547 536.70485,448.26908 C 546.71712,442.7917 547.98061,430.99689 542.26419,411.41627 M 529.17174,443.02391 C 524.78028,446.51386 512.80106,435.08102 511.72881,433.59899 L 511.71515,433.59899 C 510.64289,432.11695 503.48541,417.18733 508.14324,414.08666 C 514.64507,409.743 530.87916,418.68302 531.37772,419.31818 C 531.82848,419.99432 535.31843,438.18168 529.17174,443.02391"
         id="path2516"
         style="fill:#ffffff;fill-opacity:1;fill-rule:nonzero;stroke:none" />
      <path
         d="M 557.3509,400.44935 L 557.34407,400.44935 C 542.42128,393.44212 532.9144,393.87239 526.99992,394.95148 C 526.50818,395.04026 526.12572,395.26564 526.26231,395.43638 C 526.36476,395.57298 526.50135,395.61395 527.02724,395.81201 C 534.91549,398.74877 542.34615,402.62118 547.86451,407.33364 L 547.86451,407.34047 C 550.64418,414.04036 552.0306,422.30424 552.38574,430.72521 C 552.40623,431.29207 552.41306,431.42866 552.50868,431.56525 C 552.62478,431.74283 552.95943,431.44915 553.21213,431.00522 C 556.04644,425.7259 559.3998,416.80637 557.3509,400.46301 C 557.33724,400.46301 557.3509,400.44935 557.3509,400.44935"
         id="path2520"
         style="fill:#a6e3fa;fill-opacity:1;fill-rule:nonzero;stroke:none" />
      <path
         d="M 569.46193,391.64381 L 569.46193,391.65747 C 563.43818,387.87384 552.96832,387.38894 546.09085,389.40368 C 545.48301,389.56077 545.22349,389.752 545.32593,389.88859 C 545.40789,390.01152 545.60595,390.09348 545.98158,390.19592 C 554.82598,392.29946 559.02622,394.23225 562.91912,396.41091 C 563.77966,400.76823 564.32603,405.35776 563.58843,414.4412 C 563.56794,414.82366 563.5816,415.02855 563.67721,415.15148 C 563.77966,415.27441 564.03235,415.10367 564.36701,414.57096 C 568.41699,408.65648 571.18983,398.53493 569.46193,391.65747 L 569.46193,391.64381 z"
         id="path2524"
         style="fill:#ffffff;fill-opacity:1;fill-rule:nonzero;stroke:none" />
      <path
         d="M 596.15016,428.92553 L 596.14333,428.92553 L 596.14333,428.93919 L 596.1365,428.92553 L 596.14333,428.93919 C 580.01169,441.41014 574.10404,451.68877 578.96675,462.00837 C 583.54262,471.69282 597.96002,471.6177 608.9421,468.33263 L 608.9421,468.3258 C 619.7671,464.52169 631.48679,456.12121 629.47887,445.59672 C 627.36168,434.38242 616.52985,429.53337 596.15016,428.92553 M 622.15748,451.14239 C 624.11759,456.3944 609.55677,464.26216 607.80838,464.82902 C 606.05999,465.38905 589.65516,467.5882 588.14581,462.1996 C 586.02861,454.67333 599.5445,441.99749 600.29576,441.7243 C 601.08117,441.49892 619.4666,443.80735 622.15748,451.14239"
         id="path2528"
         style="fill:#ffffff;fill-opacity:1;fill-rule:nonzero;stroke:none" />
      <path
         d="M 590.37774,411.19028 L 590.37774,411.19028 C 579.10198,423.22413 576.58184,432.40319 575.76228,438.35181 C 575.70764,438.84355 575.80326,439.28065 576.00815,439.20552 C 576.16523,439.15771 576.25402,439.04161 576.5955,438.59085 C 581.84067,431.99341 587.80979,426.1199 593.99746,422.33628 L 593.99746,422.32945 C 593.99746,422.32945 593.99746,422.33628 594.01112,422.33628 C 601.24372,421.76258 609.52126,423.00558 617.64172,425.25937 C 618.18809,425.41645 618.31785,425.46426 618.46811,425.40279 C 618.67983,425.34815 618.50226,424.9452 618.16077,424.56957 C 614.00834,420.23274 606.57085,414.29094 590.3914,411.19028 L 590.37774,411.19028 z"
         id="path2532"
         style="fill:#a6e3fa;fill-opacity:1;fill-rule:nonzero;stroke:none" />
      <path
         d="M 585.74792,396.94089 L 585.75475,396.95455 C 580.30469,401.51676 576.60301,411.31731 576.39812,418.48162 C 576.36398,419.10995 576.46642,419.41728 576.6235,419.36264 C 576.76692,419.3285 576.89669,419.15775 577.11524,418.82993 C 581.84819,411.06461 584.983,407.67028 588.2544,404.63791 C 592.67319,405.17745 597.20808,406.07214 605.60855,409.56892 C 605.97053,409.70551 606.17542,409.76698 606.31201,409.70551 C 606.46909,409.66454 606.38031,409.3572 605.97736,408.8723 C 601.60638,403.19685 592.84393,397.43945 585.76158,396.95455 C 585.76158,396.95455 585.74792,396.95455 585.74792,396.94089"
         id="path2536"
         style="fill:#ffffff;fill-opacity:1;fill-rule:nonzero;stroke:none" />
      <path
         d="M 629.4577,383.08769 L 629.45087,383.08769 L 629.4577,383.10135 L 629.45087,383.10135 L 629.4577,383.10135 C 636.33516,402.29268 644.28488,411.08927 655.60162,409.64821 C 666.23539,408.29594 670.6132,394.56151 670.87955,383.10135 L 670.87955,383.08769 C 670.60637,371.6207 666.24222,357.87944 655.60162,356.53399 C 644.28488,355.08611 636.33516,363.87587 629.4577,383.08769 M 658.62032,365.21449 C 664.22064,364.97545 667.2052,381.25734 667.19154,383.08769 L 667.2052,383.10135 C 667.2052,384.9317 664.21381,401.20676 658.62715,400.98138 C 650.8072,400.66722 642.93944,383.90042 642.90529,383.10135 C 642.93944,382.28179 650.8072,365.50816 658.62032,365.21449"
         id="path2540"
         style="fill:#ffffff;fill-opacity:1;fill-rule:nonzero;stroke:none" />
      <path
         d="M 610.80046,383.09848 L 610.80046,383.09848 C 618.76384,397.52954 626.70672,402.76788 632.11581,405.38364 C 632.5734,405.58853 633.0105,405.62951 633.00367,405.41779 C 633.00367,405.24705 632.92171,405.13777 632.60755,404.67336 C 627.94972,397.64564 624.2139,390.14668 622.52015,383.09848 L 622.51332,383.09848 L 622.52015,383.08482 C 624.22073,376.03662 627.94972,368.53766 632.60755,361.50994 C 632.92854,361.04553 633.00367,360.92259 633.00367,360.76551 C 633.0105,360.54696 632.5734,360.59477 632.10898,360.79966 C 626.70672,363.41542 618.75018,368.65376 610.80729,383.08482 C 610.81412,383.08482 610.80046,383.08482 610.80046,383.09848"
         id="path2544"
         style="fill:#a6e3fa;fill-opacity:1;fill-rule:nonzero;stroke:none" />
      <path
         d="M 595.82098,383.09848 L 595.83464,383.08482 C 598.48455,389.6891 606.66647,396.23873 613.41417,398.6496 C 613.99469,398.87498 614.32934,398.86815 614.32934,398.70424 C 614.32934,398.56082 614.21324,398.37642 613.96737,398.07591 C 608.04606,391.17113 605.79227,387.14164 603.91412,383.08482 C 605.79227,379.05532 608.04606,375.019 613.9742,368.10739 C 614.21324,367.80688 614.32934,367.62248 614.31568,367.47906 C 614.32251,367.32198 614.00152,367.30832 613.421,367.5337 C 606.66647,369.94457 598.48455,376.50103 595.83464,383.08482 L 595.82098,383.09848 z"
         id="path2548"
         style="fill:#ffffff;fill-opacity:1;fill-rule:nonzero;stroke:none" />
      <path
         d="M 596.15016,337.24623 L 596.15016,337.24623 L 596.15699,337.24623 C 616.54351,336.63839 627.36168,331.78934 629.49253,320.57504 C 631.48679,310.05055 619.77393,301.63641 608.96259,297.84596 L 608.94893,297.84596 C 597.96002,294.56772 583.54262,294.46528 578.98041,304.16339 C 574.10404,314.48299 580.01169,324.76162 596.15016,337.24623 M 588.15946,303.97898 C 589.66199,298.58356 606.07365,300.78271 607.81521,301.34274 L 607.81521,301.34274 C 609.5636,301.9096 624.12442,309.77736 622.17797,315.02937 C 619.4666,322.36441 601.088,324.67284 600.31625,324.45429 C 599.55133,324.17427 586.02861,311.49843 588.15946,303.97898"
         id="path2552"
         style="fill:#ffffff;fill-opacity:1;fill-rule:nonzero;stroke:none" />
      <path
         d="M 590.38867,354.98155 L 590.40233,354.98155 C 606.58178,351.88089 614.01927,345.93909 618.1717,341.60226 C 618.51319,341.23346 618.69759,340.82368 618.47904,340.76904 C 618.32196,340.70757 618.19219,340.75538 617.64582,340.91246 C 609.52536,343.17991 601.24782,344.40925 594.01522,343.84238 L 594.00839,343.84238 L 594.00156,343.83555 C 587.82072,340.03827 581.84477,334.17842 576.60643,327.58098 C 576.26495,327.13022 576.17616,327.01412 576.01908,326.96631 C 575.81419,326.89118 575.71857,327.32828 575.77321,327.82685 C 576.59277,333.7823 579.11291,342.96136 590.38184,354.98155 C 590.38867,354.96789 590.38867,354.98155 590.38867,354.98155"
         id="path2556"
         style="fill:#a6e3fa;fill-opacity:1;fill-rule:nonzero;stroke:none" />
      <path
         d="M 585.76568,369.23162 L 585.75885,369.21796 C 592.85486,368.73306 601.61731,362.98249 605.98829,357.30021 C 606.38441,356.81531 606.48002,356.50797 606.32294,356.45334 C 606.18635,356.40553 605.98146,356.467 605.61265,356.60359 C 597.21218,360.10037 592.68412,361.00189 588.2585,361.5346 C 585.00076,358.50223 581.85912,355.1079 577.12617,347.34258 C 576.90762,347.01476 576.77103,346.85767 576.6276,346.82352 C 576.47052,346.76206 576.36808,347.06256 576.40905,347.69089 C 576.61394,354.8552 580.31562,364.66941 585.75885,369.21796 C 585.75885,369.21796 585.75885,369.23162 585.76568,369.23162"
         id="path2560"
         style="fill:#ffffff;fill-opacity:1;fill-rule:nonzero;stroke:none" />
      <path
         d="M 542.25805,354.75473 L 542.26488,354.75473 L 542.26488,354.74107 C 547.9813,335.17411 546.71781,323.3793 536.71237,317.89509 C 527.31477,312.74553 515.69753,321.27577 508.74494,330.40018 C 502.22945,339.83877 497.6809,353.51856 505.49402,360.85361 C 513.79888,368.68722 525.40929,366.24221 542.25805,354.75473 M 508.15759,352.07068 C 503.4861,348.97001 510.64358,334.04039 511.7295,332.57201 L 511.7295,332.55835 C 512.80175,331.07632 524.78779,319.65714 529.17243,323.13343 C 535.31229,327.97566 531.82917,346.16303 531.38524,346.84599 C 530.87985,347.48115 514.65259,356.42117 508.15759,352.07068"
         id="path2564"
         style="fill:#ffffff;fill-opacity:1;fill-rule:nonzero;stroke:none" />
      <path
         d="M 557.3509,365.71162 L 557.35773,365.71162 C 559.3998,349.3546 556.04644,340.44873 553.21213,335.15575 C 552.95943,334.71182 552.63161,334.41814 552.50868,334.59572 C 552.41989,334.73231 552.41306,334.88256 552.39257,335.43576 C 552.03743,343.85673 550.65101,352.12061 547.87817,358.8205 L 547.87817,358.82733 L 547.86451,358.82733 C 542.35298,363.53979 534.92232,367.4122 527.02724,370.34896 C 526.50135,370.54702 526.36476,370.58799 526.26914,370.72459 C 526.13255,370.89533 526.52184,371.12071 527.01358,371.20949 C 532.92123,372.28858 542.43494,372.71885 557.34407,365.72528 C 557.34407,365.71162 557.3509,365.71162 557.3509,365.71162"
         id="path2568"
         style="fill:#a6e3fa;fill-opacity:1;fill-rule:nonzero;stroke:none" />
      <path
         d="M 569.47285,374.51982 L 569.45919,374.51982 C 571.19392,367.62187 568.42791,357.50715 564.37793,351.5995 C 564.03645,351.06679 563.77692,350.88239 563.67447,351.01898 C 563.58569,351.13508 563.57886,351.33997 563.59252,351.73609 C 564.33012,360.79904 563.77692,365.38174 562.92321,369.76638 C 559.03714,371.92455 554.8369,373.85734 545.97884,375.98137 C 545.61687,376.07015 545.41198,376.15211 545.33002,376.27504 C 545.23441,376.41163 545.4871,376.60286 546.09494,376.75995 C 552.97241,378.77469 563.4491,378.28979 569.45919,374.51982 L 569.47285,374.51982 z"
         id="path2572"
         style="fill:#ffffff;fill-opacity:1;fill-rule:nonzero;stroke:none" />
    </g>
  </g>
</svg>
